<?xml version="1.0" encoding="UTF-8" standalone="no"?>
<!DOCTYPE svg PUBLIC "-//W3C//DTD SVG 1.1//EN"
 "http://www.w3.org/Graphics/SVG/1.1/DTD/svg11.dtd">
<!-- Generated by graphviz version 14.1.2 (20260124.0452)
 -->
<!-- Title: bitStuffing.h Pages: 1 -->
<svg width="216pt" height="140pt"
 viewBox="0.00 0.00 216.00 140.00" xmlns="http://www.w3.org/2000/svg" xmlns:xlink="http://www.w3.org/1999/xlink">
<g id="graph0" class="graph" transform="scale(1 1) rotate(0) translate(4 136)">
<title>bitStuffing.h</title>
<!-- Node1 -->
<g id="Node000001" class="node">
<title>Node1</title>
<g id="a_Node000001"><a xlink:title=" ">
<polygon fill="#999999" stroke="#666666" points="142.12,-132 74.38,-132 74.38,-112 142.12,-112 142.12,-132"/>
<text xml:space="preserve" text-anchor="middle" x="108.25" y="-118.5" font-family="Helvetica,sans-Serif" font-size="10.00">bitStuffing.h</text>
</a>
</g>
</g>
<!-- Node2 -->
<g id="Node000002" class="node">
<title>Node2</title>
<g id="a_Node000002"><a xlink:href="api_8h.html" target="_top" xlink:title=" ">
<polygon fill="white" stroke="#666666" points="102.25,-76 2.25,-76 2.25,-56 102.25,-56 102.25,-76"/>
<text xml:space="preserve" text-anchor="middle" x="52.25" y="-62.5" font-family="Helvetica,sans-Serif" font-size="10.00">gnuradio/DLC/api.h</text>
</a>
</g>
</g>
<!-- Node1&#45;&gt;Node2 -->
<g id="edge1_Node000001_Node000002" class="edge">
<title>Node1&#45;&gt;Node2</title>
<g id="a_edge1_Node000001_Node000002"><a xlink:title=" ">
<path fill="none" stroke="#63b8ff" d="M98.5,-111.59C90.63,-104.01 79.35,-93.13 69.9,-84.02"/>
<polygon fill="#63b8ff" stroke="#63b8ff" points="72.61,-81.77 62.98,-77.35 67.75,-86.81 72.61,-81.77"/>
</a>
</g>
</g>
<!-- Node4 -->
<g id="Node000004" class="node">
<title>Node4</title>
<g id="a_Node000004"><a xlink:title=" ">
<polygon fill="#e0e0e0" stroke="#999999" points="207.88,-76 120.62,-76 120.62,-56 207.88,-56 207.88,-76"/>
<text xml:space="preserve" text-anchor="middle" x="164.25" y="-62.5" font-family="Helvetica,sans-Serif" font-size="10.00">gnuradio/block.h</text>
</a>
</g>
</g>
<!-- Node1&#45;&gt;Node4 -->
<g id="edge3_Node000001_Node000004" class="edge">
<title>Node1&#45;&gt;Node4</title>
<g id="a_edge3_Node000001_Node000004"><a xlink:title=" ">
<path fill="none" stroke="#63b8ff" d="M118,-111.59C125.87,-104.01 137.15,-93.13 146.6,-84.02"/>
<polygon fill="#63b8ff" stroke="#63b8ff" points="148.75,-86.81 153.52,-77.35 143.89,-81.77 148.75,-86.81"/>
</a>
</g>
</g>
<!-- Node3 -->
<g id="Node000003" class="node">
<title>Node3</title>
<g id="a_Node000003"><a xlink:title=" ">
<polygon fill="#e0e0e0" stroke="#999999" points="104.5,-20 0,-20 0,0 104.5,0 104.5,-20"/>
<text xml:space="preserve" text-anchor="middle" x="52.25" y="-6.5" font-family="Helvetica,sans-Serif" font-size="10.00">gnuradio/attributes.h</text>
</a>
</g>
</g>
<!-- Node2&#45;&gt;Node3 -->
<g id="edge2_Node000002_Node000003" class="edge">
<title>Node2&#45;&gt;Node3</title>
<g id="a_edge2_Node000002_Node000003"><a xlink:title=" ">
<path fill="none" stroke="#63b8ff" d="M52.25,-55.59C52.25,-49.01 52.25,-39.96 52.25,-31.73"/>
<polygon fill="#63b8ff" stroke="#63b8ff" points="55.75,-31.81 52.25,-21.81 48.75,-31.81 55.75,-31.81"/>
</a>
</g>
</g>
</g>
</svg>
