<svg xmlns="http://www.w3.org/2000/svg" viewBox="0 0 680 440" width="680" height="440" style="background:#ffffff; font-family: -apple-system, BlinkMacSystemFont, Segoe UI, Roboto, sans-serif;">
<text x="340.0" y="32" text-anchor="middle" font-size="14" font-weight="bold" fill="#0f172a">BPSK (y·y' TED): Packet Delivery Ratio (PDR %) vs Noise across Preambles</text>
<g stroke="#e2e8f0" stroke-width="1">
<line x1="85" y1="380.0" x2="510" y2="380.0" />
<text x="75" y="384.0" text-anchor="end" font-size="10" fill="#64748b">0.00</text>
<line x1="85" y1="300.0" x2="510" y2="300.0" />
<text x="75" y="304.0" text-anchor="end" font-size="10" fill="#64748b">25.00</text>
<line x1="85" y1="220.0" x2="510" y2="220.0" />
<text x="75" y="224.0" text-anchor="end" font-size="10" fill="#64748b">50.00</text>
<line x1="85" y1="140.0" x2="510" y2="140.0" />
<text x="75" y="144.0" text-anchor="end" font-size="10" fill="#64748b">75.00</text>
<line x1="85" y1="60.0" x2="510" y2="60.0" />
<text x="75" y="64.0" text-anchor="end" font-size="10" fill="#64748b">100.00</text>
<line x1="85.0" y1="60" x2="85.0" y2="380" />
<text x="85.0" y="398" text-anchor="middle" font-size="10" fill="#64748b">0.00</text>
<line x1="170.0" y1="60" x2="170.0" y2="380" />
<text x="170.0" y="398" text-anchor="middle" font-size="10" fill="#64748b">0.10</text>
<line x1="255.0" y1="60" x2="255.0" y2="380" />
<text x="255.0" y="398" text-anchor="middle" font-size="10" fill="#64748b">0.20</text>
<line x1="340.0" y1="60" x2="340.0" y2="380" />
<text x="340.0" y="398" text-anchor="middle" font-size="10" fill="#64748b">0.30</text>
<line x1="425.0" y1="60" x2="425.0" y2="380" />
<text x="425.0" y="398" text-anchor="middle" font-size="10" fill="#64748b">0.40</text>
<line x1="510.0" y1="60" x2="510.0" y2="380" />
<text x="510.0" y="398" text-anchor="middle" font-size="10" fill="#64748b">0.50</text>
</g>
<line x1="85" y1="380" x2="510" y2="380" stroke="#475569" stroke-width="2" />
<line x1="85" y1="60" x2="85" y2="380" stroke="#475569" stroke-width="2" />
<text x="297.5" y="425" text-anchor="middle" font-size="12" font-weight="600" fill="#334155">Channel Noise Voltage (Vn)</text>
<text transform="rotate(-90)" x="-220.0" y="20" text-anchor="middle" font-size="12" font-weight="600" fill="#334155">Packet Delivery Ratio (%)</text>
<path d="M 85.0 96.6 L 102.0 96.6 L 127.5 96.6 L 153.0 96.6 L 187.0 96.6 L 238.0 96.6 L 297.5 96.6 L 382.5 96.6 L 510.0 98.9" fill="none" stroke="#2563eb" stroke-width="2.2" />
<circle cx="85.0" cy="96.6" r="3.5" fill="#2563eb" stroke="#ffffff" stroke-width="1.2" />
<circle cx="102.0" cy="96.6" r="3.5" fill="#2563eb" stroke="#ffffff" stroke-width="1.2" />
<circle cx="127.5" cy="96.6" r="3.5" fill="#2563eb" stroke="#ffffff" stroke-width="1.2" />
<circle cx="153.0" cy="96.6" r="3.5" fill="#2563eb" stroke="#ffffff" stroke-width="1.2" />
<circle cx="187.0" cy="96.6" r="3.5" fill="#2563eb" stroke="#ffffff" stroke-width="1.2" />
<circle cx="238.0" cy="96.6" r="3.5" fill="#2563eb" stroke="#ffffff" stroke-width="1.2" />
<circle cx="297.5" cy="96.6" r="3.5" fill="#2563eb" stroke="#ffffff" stroke-width="1.2" />
<circle cx="382.5" cy="96.6" r="3.5" fill="#2563eb" stroke="#ffffff" stroke-width="1.2" />
<circle cx="510.0" cy="98.9" r="3.5" fill="#2563eb" stroke="#ffffff" stroke-width="1.2" />
<line x1="525" y1="70" x2="545" y2="70" stroke="#2563eb" stroke-width="2.5" />
<circle cx="535" cy="70" r="3.5" fill="#2563eb" />
<text x="552" y="74" font-size="11" font-weight="500" fill="#334155">Preamble = 16 B</text>
<path d="M 85.0 112.6 L 102.0 110.3 L 127.5 108.0 L 153.0 108.0 L 187.0 112.6 L 238.0 105.7 L 297.5 124.0 L 382.5 119.4 L 510.0 128.6" fill="none" stroke="#16a34a" stroke-width="2.2" />
<circle cx="85.0" cy="112.6" r="3.5" fill="#16a34a" stroke="#ffffff" stroke-width="1.2" />
<circle cx="102.0" cy="110.3" r="3.5" fill="#16a34a" stroke="#ffffff" stroke-width="1.2" />
<circle cx="127.5" cy="108.0" r="3.5" fill="#16a34a" stroke="#ffffff" stroke-width="1.2" />
<circle cx="153.0" cy="108.0" r="3.5" fill="#16a34a" stroke="#ffffff" stroke-width="1.2" />
<circle cx="187.0" cy="112.6" r="3.5" fill="#16a34a" stroke="#ffffff" stroke-width="1.2" />
<circle cx="238.0" cy="105.7" r="3.5" fill="#16a34a" stroke="#ffffff" stroke-width="1.2" />
<circle cx="297.5" cy="124.0" r="3.5" fill="#16a34a" stroke="#ffffff" stroke-width="1.2" />
<circle cx="382.5" cy="119.4" r="3.5" fill="#16a34a" stroke="#ffffff" stroke-width="1.2" />
<circle cx="510.0" cy="128.6" r="3.5" fill="#16a34a" stroke="#ffffff" stroke-width="1.2" />
<line x1="525" y1="90" x2="545" y2="90" stroke="#16a34a" stroke-width="2.5" />
<circle cx="535" cy="90" r="3.5" fill="#16a34a" />
<text x="552" y="94" font-size="11" font-weight="500" fill="#334155">Preamble = 24 B</text>
<path d="M 85.0 104.6 L 102.0 147.8 L 127.5 124.0 L 153.0 133.1 L 187.0 121.7 L 212.5 92.0 L 238.0 112.6 L 297.5 110.3 L 382.5 126.3 L 510.0 142.3" fill="none" stroke="#dc2626" stroke-width="2.2" />
<circle cx="85.0" cy="104.6" r="3.5" fill="#dc2626" stroke="#ffffff" stroke-width="1.2" />
<circle cx="102.0" cy="147.8" r="3.5" fill="#dc2626" stroke="#ffffff" stroke-width="1.2" />
<circle cx="127.5" cy="124.0" r="3.5" fill="#dc2626" stroke="#ffffff" stroke-width="1.2" />
<circle cx="153.0" cy="133.1" r="3.5" fill="#dc2626" stroke="#ffffff" stroke-width="1.2" />
<circle cx="187.0" cy="121.7" r="3.5" fill="#dc2626" stroke="#ffffff" stroke-width="1.2" />
<circle cx="212.5" cy="92.0" r="3.5" fill="#dc2626" stroke="#ffffff" stroke-width="1.2" />
<circle cx="238.0" cy="112.6" r="3.5" fill="#dc2626" stroke="#ffffff" stroke-width="1.2" />
<circle cx="297.5" cy="110.3" r="3.5" fill="#dc2626" stroke="#ffffff" stroke-width="1.2" />
<circle cx="382.5" cy="126.3" r="3.5" fill="#dc2626" stroke="#ffffff" stroke-width="1.2" />
<circle cx="510.0" cy="142.3" r="3.5" fill="#dc2626" stroke="#ffffff" stroke-width="1.2" />
<line x1="525" y1="110" x2="545" y2="110" stroke="#dc2626" stroke-width="2.5" />
<circle cx="535" cy="110" r="3.5" fill="#dc2626" />
<text x="552" y="114" font-size="11" font-weight="500" fill="#334155">Preamble = 32 B</text>
<path d="M 85.0 144.6 L 102.0 140.0 L 127.5 130.9 L 153.0 130.9 L 187.0 133.1 L 238.0 135.4 L 297.5 128.6 L 382.5 194.9 L 510.0 194.9" fill="none" stroke="#d97706" stroke-width="2.2" />
<circle cx="85.0" cy="144.6" r="3.5" fill="#d97706" stroke="#ffffff" stroke-width="1.2" />
<circle cx="102.0" cy="140.0" r="3.5" fill="#d97706" stroke="#ffffff" stroke-width="1.2" />
<circle cx="127.5" cy="130.9" r="3.5" fill="#d97706" stroke="#ffffff" stroke-width="1.2" />
<circle cx="153.0" cy="130.9" r="3.5" fill="#d97706" stroke="#ffffff" stroke-width="1.2" />
<circle cx="187.0" cy="133.1" r="3.5" fill="#d97706" stroke="#ffffff" stroke-width="1.2" />
<circle cx="238.0" cy="135.4" r="3.5" fill="#d97706" stroke="#ffffff" stroke-width="1.2" />
<circle cx="297.5" cy="128.6" r="3.5" fill="#d97706" stroke="#ffffff" stroke-width="1.2" />
<circle cx="382.5" cy="194.9" r="3.5" fill="#d97706" stroke="#ffffff" stroke-width="1.2" />
<circle cx="510.0" cy="194.9" r="3.5" fill="#d97706" stroke="#ffffff" stroke-width="1.2" />
<line x1="525" y1="130" x2="545" y2="130" stroke="#d97706" stroke-width="2.5" />
<circle cx="535" cy="130" r="3.5" fill="#d97706" />
<text x="552" y="134" font-size="11" font-weight="500" fill="#334155">Preamble = 48 B</text>
<path d="M 85.0 119.4 L 102.0 126.3 L 127.5 121.7 L 153.0 128.6 L 187.0 133.1 L 238.0 140.0 L 297.5 151.4 L 382.5 165.1 L 510.0 215.4" fill="none" stroke="#9333ea" stroke-width="2.2" />
<circle cx="85.0" cy="119.4" r="3.5" fill="#9333ea" stroke="#ffffff" stroke-width="1.2" />
<circle cx="102.0" cy="126.3" r="3.5" fill="#9333ea" stroke="#ffffff" stroke-width="1.2" />
<circle cx="127.5" cy="121.7" r="3.5" fill="#9333ea" stroke="#ffffff" stroke-width="1.2" />
<circle cx="153.0" cy="128.6" r="3.5" fill="#9333ea" stroke="#ffffff" stroke-width="1.2" />
<circle cx="187.0" cy="133.1" r="3.5" fill="#9333ea" stroke="#ffffff" stroke-width="1.2" />
<circle cx="238.0" cy="140.0" r="3.5" fill="#9333ea" stroke="#ffffff" stroke-width="1.2" />
<circle cx="297.5" cy="151.4" r="3.5" fill="#9333ea" stroke="#ffffff" stroke-width="1.2" />
<circle cx="382.5" cy="165.1" r="3.5" fill="#9333ea" stroke="#ffffff" stroke-width="1.2" />
<circle cx="510.0" cy="215.4" r="3.5" fill="#9333ea" stroke="#ffffff" stroke-width="1.2" />
<line x1="525" y1="150" x2="545" y2="150" stroke="#9333ea" stroke-width="2.5" />
<circle cx="535" cy="150" r="3.5" fill="#9333ea" />
<text x="552" y="154" font-size="11" font-weight="500" fill="#334155">Preamble = 64 B</text>
</svg>