<svg xmlns="http://www.w3.org/2000/svg" viewBox="0 0 700 420" width="700" height="420" style="background:#ffffff; font-family: -apple-system, BlinkMacSystemFont, Segoe UI, Roboto, Helvetica, Arial, sans-serif;">
<text x="350.0" y="32" text-anchor="middle" font-size="16" font-weight="bold" fill="#1e293b">BPSK Bit Error Rate (BER) vs Channel Noise Voltage</text>
<g class="grid" stroke="#e2e8f0" stroke-width="1">
<line x1="80" y1="60.0" x2="560" y2="60.0" />
<text x="70" y="64.0" text-anchor="end" font-size="11" fill="#64748b">1.0e+00</text>
<line x1="80" y1="135.0" x2="560" y2="135.0" />
<text x="70" y="139.0" text-anchor="end" font-size="11" fill="#64748b">1.0e-01</text>
<line x1="80" y1="210.0" x2="560" y2="210.0" />
<text x="70" y="214.0" text-anchor="end" font-size="11" fill="#64748b">1.0e-02</text>
<line x1="80" y1="285.0" x2="560" y2="285.0" />
<text x="70" y="289.0" text-anchor="end" font-size="11" fill="#64748b">1.0e-03</text>
<line x1="80" y1="360.0" x2="560" y2="360.0" />
<text x="70" y="364.0" text-anchor="end" font-size="11" fill="#64748b">1.0e-04</text>
<line x1="80.0" y1="60" x2="80.0" y2="360" />
<text x="80.0" y="380" text-anchor="middle" font-size="11" fill="#64748b">0.000</text>
<line x1="176.0" y1="60" x2="176.0" y2="360" />
<text x="176.0" y="380" text-anchor="middle" font-size="11" fill="#64748b">0.160</text>
<line x1="272.0" y1="60" x2="272.0" y2="360" />
<text x="272.0" y="380" text-anchor="middle" font-size="11" fill="#64748b">0.320</text>
<line x1="368.00000000000006" y1="60" x2="368.00000000000006" y2="360" />
<text x="368.00000000000006" y="380" text-anchor="middle" font-size="11" fill="#64748b">0.480</text>
<line x1="463.99999999999994" y1="60" x2="463.99999999999994" y2="360" />
<text x="463.99999999999994" y="380" text-anchor="middle" font-size="11" fill="#64748b">0.640</text>
<line x1="560.0" y1="60" x2="560.0" y2="360" />
<text x="560.0" y="380" text-anchor="middle" font-size="11" fill="#64748b">0.800</text>
</g>
<line x1="80" y1="360" x2="560" y2="360" stroke="#475569" stroke-width="2" />
<line x1="80" y1="60" x2="80" y2="360" stroke="#475569" stroke-width="2" />
<text x="320.0" y="405" text-anchor="middle" font-size="13" font-weight="600" fill="#334155">Channel Noise Voltage (Vn)</text>
<text transform="rotate(-90)" x="-210.0" y="24" text-anchor="middle" font-size="13" font-weight="600" fill="#334155">Bit Error Rate (BER)</text>
<path d="M 80.0 360.0 L 140.0 245.8 L 200.0 245.8 L 260.0 245.8 L 320.0 245.8 L 380.0 245.8 L 440.0 223.2 L 500.0 245.8 L 560.0 174.2" fill="none" stroke="#2563eb" stroke-width="2.5" />
<circle cx="80.0" cy="360.0" r="4.5" fill="#2563eb" stroke="#ffffff" stroke-width="1.5" />
<circle cx="140.0" cy="245.8" r="4.5" fill="#2563eb" stroke="#ffffff" stroke-width="1.5" />
<circle cx="200.0" cy="245.8" r="4.5" fill="#2563eb" stroke="#ffffff" stroke-width="1.5" />
<circle cx="260.0" cy="245.8" r="4.5" fill="#2563eb" stroke="#ffffff" stroke-width="1.5" />
<circle cx="320.0" cy="245.8" r="4.5" fill="#2563eb" stroke="#ffffff" stroke-width="1.5" />
<circle cx="380.0" cy="245.8" r="4.5" fill="#2563eb" stroke="#ffffff" stroke-width="1.5" />
<circle cx="440.0" cy="223.2" r="4.5" fill="#2563eb" stroke="#ffffff" stroke-width="1.5" />
<circle cx="500.0" cy="245.8" r="4.5" fill="#2563eb" stroke="#ffffff" stroke-width="1.5" />
<circle cx="560.0" cy="174.2" r="4.5" fill="#2563eb" stroke="#ffffff" stroke-width="1.5" />
<circle cx="575" cy="70" r="5" fill="#2563eb" />
<text x="588" y="74" font-size="11" font-weight="500" fill="#334155">Measured PHY2</text>
<path d="M 80.0 360.0 L 140.0 360.0 L 200.0 360.0 L 260.0 360.0 L 320.0 360.0 L 380.0 360.0 L 440.0 312.6 L 500.0 260.3 L 560.0 225.5" fill="none" stroke="#dc2626" stroke-width="2.5" />
<circle cx="80.0" cy="360.0" r="4.5" fill="#dc2626" stroke="#ffffff" stroke-width="1.5" />
<circle cx="140.0" cy="360.0" r="4.5" fill="#dc2626" stroke="#ffffff" stroke-width="1.5" />
<circle cx="200.0" cy="360.0" r="4.5" fill="#dc2626" stroke="#ffffff" stroke-width="1.5" />
<circle cx="260.0" cy="360.0" r="4.5" fill="#dc2626" stroke="#ffffff" stroke-width="1.5" />
<circle cx="320.0" cy="360.0" r="4.5" fill="#dc2626" stroke="#ffffff" stroke-width="1.5" />
<circle cx="380.0" cy="360.0" r="4.5" fill="#dc2626" stroke="#ffffff" stroke-width="1.5" />
<circle cx="440.0" cy="312.6" r="4.5" fill="#dc2626" stroke="#ffffff" stroke-width="1.5" />
<circle cx="500.0" cy="260.3" r="4.5" fill="#dc2626" stroke="#ffffff" stroke-width="1.5" />
<circle cx="560.0" cy="225.5" r="4.5" fill="#dc2626" stroke="#ffffff" stroke-width="1.5" />
<circle cx="575" cy="94" r="5" fill="#dc2626" />
<text x="588" y="98" font-size="11" font-weight="500" fill="#334155">Theoretical AWGN</text>
</svg>